<svg width="18" height="16" viewBox="0 0 18 16" xmlns="http://www.w3.org/2000/svg">
<path d="M9 6.26434C7.31079 6.26434 5.94141 4.89496 5.94141 3.20575C5.94141 1.51653 7.31079 0.147156 9 0.147156C10.6892 0.147156 12.0586 1.51653 12.0586 3.20575C12.0586 4.89496 10.6892 6.26434 9 6.26434Z" fill="currentColor"/>
<path d="M2.8125 6.26432C1.74461 6.26432 0.878906 5.39862 0.878906 4.33072C0.878906 3.26283 1.74461 2.39713 2.8125 2.39713C3.88039 2.39713 4.74609 3.26283 4.74609 4.33072C4.74609 5.39862 3.88039 6.26432 2.8125 6.26432Z" fill="currentColor"/>
<path d="M15.1875 6.26432C14.1196 6.26432 13.2539 5.39862 13.2539 4.33072C13.2539 3.26283 14.1196 2.39713 15.1875 2.39713C16.2554 2.39713 17.1211 3.26283 17.1211 4.33072C17.1211 5.39862 16.2554 6.26432 15.1875 6.26432Z" fill="currentColor"/>
<path d="M13.2824 8.00069C14.0435 7.37709 14.7328 7.45964 15.6129 7.45964C16.9291 7.45964 18 8.52417 18 9.83233V13.6717C18 14.2399 17.5363 14.7018 16.9661 14.7018C14.5042 14.7018 14.8008 14.7464 14.8008 14.5956C14.8008 11.875 15.123 9.8799 13.2824 8.00069Z" fill="#6B6B66"/>
<path d="M8.16307 7.47367C9.70024 7.34546 11.0364 7.47515 12.1888 8.42641C14.1174 9.97117 13.7462 12.0511 13.7462 14.5956C13.7462 15.2688 13.1985 15.8268 12.5151 15.8268C5.09421 15.8268 4.79886 16.0662 4.35881 15.0917C4.2145 14.7621 4.25405 14.8668 4.25405 11.7142C4.25405 9.21018 6.42224 7.47367 8.16307 7.47367Z" fill="currentColor"/>
<path d="M2.38726 7.45965C3.27215 7.45965 3.95766 7.37794 4.71777 8.0007C2.89088 9.86594 3.19937 11.725 3.19937 14.5956C3.19937 14.7473 3.44557 14.7018 1.07101 14.7018C0.480389 14.7018 0.000154495 14.2233 0.000154495 13.6352V9.83233C0.000154495 8.52417 1.07101 7.45965 2.38726 7.45965Z" fill="currentColor"/>
</svg>
